<svg width="41" height="41" viewBox="0 0 41 41" fill="none" xmlns="http://www.w3.org/2000/svg">
<path d="M20.5 20.499C20.942 20.499 21.3008 20.1402 21.3008 19.6982C21.3008 19.2562 20.942 18.8975 20.5 18.8975C20.058 18.8975 19.6992 19.2562 19.6992 19.6982C19.6992 20.1402 20.058 20.499 20.5 20.499Z" fill="black"/>
<path d="M37.7969 14.0929H33.0613L25.7767 4.07093C25.1223 2.94952 23.6809 2.55038 22.536 3.18444C21.3755 3.82913 20.9583 5.29087 21.6033 6.45169C21.6217 6.48453 21.642 6.51612 21.6649 6.54615L27.3786 14.0929H13.6214L19.3351 6.54615C19.3576 6.51612 19.3783 6.48453 19.3967 6.45169C20.0402 5.29368 19.6276 3.83069 18.463 3.18381C17.3206 2.55101 15.8792 2.94983 15.2236 4.0703L7.93868 14.0929H3.20312C1.43703 14.0929 0 15.5299 0 17.296C0 18.6889 0.904007 19.9017 2.17744 20.3309C2.31319 20.436 2.48273 20.4991 2.66729 20.4991C2.7042 20.4991 2.73892 20.5013 2.77521 20.5063C3.11992 20.5526 3.393 20.8141 3.45556 21.1563L6.17978 36.1441C6.38779 37.2868 7.38189 38.1163 8.54365 38.1163H32.4563C33.6181 38.1163 34.6122 37.2868 34.8202 36.1438L37.5444 21.1567C37.607 20.8141 37.8804 20.5526 38.2264 20.5063C38.2614 20.5013 38.2961 20.4991 38.3327 20.4991C38.5185 20.4991 38.6893 20.4353 38.8251 20.329C40.0994 19.897 41 18.6864 41 17.296C41 15.5299 39.563 14.0929 37.7969 14.0929ZM22.9815 5.63182C22.7985 5.25302 22.9405 4.79163 23.3127 4.58518C23.7003 4.37028 24.1889 4.50885 24.4026 4.89392C24.4182 4.92269 24.436 4.95022 24.4551 4.9765L31.0813 14.0929H29.3871L22.9815 5.63182ZM16.5449 4.97681C16.564 4.95053 16.5812 4.92332 16.5971 4.89517C16.8114 4.50979 17.3003 4.37091 17.6863 4.58455C18.0592 4.79163 18.2018 5.25239 18.0185 5.63182L11.6129 14.0929H9.91874L16.5449 4.97681ZM37.7969 18.8976H23.7031C23.2608 18.8976 22.9023 19.2561 22.9023 19.6984C22.9023 20.1407 23.2608 20.491 23.7031 20.491H36.0671C36.0251 20.6105 35.992 20.7344 35.9688 20.862L33.2443 35.8573C33.1752 36.2382 32.8436 36.5148 32.4563 36.5148H8.54365C8.15608 36.5148 7.82482 36.2382 7.75538 35.8576L5.03116 20.8698C5.00801 20.7422 4.97485 20.6183 4.93294 20.4991H17.2969C17.7392 20.4991 18.0977 20.1407 18.0977 19.6984C18.0977 19.2561 17.7392 18.8976 17.2969 18.8976H3.20312C2.31257 18.8976 1.60156 18.1719 1.60156 17.296C1.60156 16.413 2.32008 15.6945 3.20312 15.6945H37.7969C38.6799 15.6945 39.3984 16.413 39.3984 17.296C39.3984 18.1853 38.6708 18.8976 37.7969 18.8976Z" fill="black"/>
<path d="M20.5 22.9014C19.1753 22.9014 18.0977 23.979 18.0977 25.3037V31.71C18.0977 33.0347 19.1753 34.1123 20.5 34.1123C21.8247 34.1123 22.9023 33.0347 22.9023 31.71V25.3037C22.9023 23.9765 21.8272 22.9014 20.5 22.9014ZM21.3008 31.71C21.3008 32.1516 20.9417 32.5107 20.5 32.5107C20.0583 32.5107 19.6992 32.1516 19.6992 31.71V25.3037C19.6992 24.862 20.0583 24.5029 20.5 24.5029C20.942 24.5029 21.3008 24.8617 21.3008 25.3037V31.71Z" fill="black"/>
<path d="M28.5078 34.1123C29.8325 34.1123 30.9102 33.0347 30.9102 31.71V25.3037C30.9102 23.9765 29.835 22.9014 28.5078 22.9014C27.1831 22.9014 26.1055 23.979 26.1055 25.3037V31.71C26.1055 33.0347 27.1831 34.1123 28.5078 34.1123ZM27.707 25.3037C27.707 24.862 28.0661 24.5029 28.5078 24.5029C28.9498 24.5029 29.3086 24.8617 29.3086 25.3037V31.71C29.3086 32.1516 28.9495 32.5107 28.5078 32.5107C28.0661 32.5107 27.707 32.1516 27.707 31.71V25.3037Z" fill="black"/>
<path d="M12.4922 22.9014C11.1675 22.9014 10.0898 23.979 10.0898 25.3037V31.71C10.0898 33.0347 11.1675 34.1123 12.4922 34.1123C13.8169 34.1123 14.8945 33.0347 14.8945 31.71V25.3037C14.8945 23.9765 13.8194 22.9014 12.4922 22.9014ZM13.293 31.71C13.293 32.1516 12.9339 32.5107 12.4922 32.5107C12.0505 32.5107 11.6914 32.1516 11.6914 31.71V25.3037C11.6914 24.862 12.0505 24.5029 12.4922 24.5029C12.9342 24.5029 13.293 24.8614 13.293 25.3037V31.71Z" fill="black"/>
</svg>
