<svg width="40" height="40" viewBox="0 0 40 40" fill="none" xmlns="http://www.w3.org/2000/svg">
<path d="M3.82813 12.6875C1.92735 12.6875 0.381256 11.1414 0.381256 9.24058C0.381256 7.33979 1.92735 5.7937 3.82813 5.7937C5.72891 5.7937 7.27501 7.33979 7.27501 9.24058C7.27501 11.1414 5.72891 12.6875 3.82813 12.6875ZM3.82813 6.65308C2.40157 6.65308 1.24063 7.81401 1.24063 9.24058C1.24063 10.6671 2.40157 11.8281 3.82813 11.8281C5.25469 11.8281 6.41563 10.6671 6.41563 9.24058C6.41563 7.81401 5.25469 6.65308 3.82813 6.65308Z" fill="black"/>
<path d="M36.1234 12.6875H12.3922C10.4914 12.6875 8.94531 11.1414 8.94531 9.24058C8.94531 7.33979 10.4914 5.7937 12.3922 5.7937H36.1234C38.0242 5.7937 39.5703 7.33979 39.5703 9.24058C39.5703 11.1414 38.0242 12.6875 36.1234 12.6875ZM12.3922 6.65308C10.9656 6.65308 9.80469 7.81401 9.80469 9.24058C9.80469 10.6671 10.9656 11.8281 12.3922 11.8281H36.1234C37.55 11.8281 38.7109 10.6671 38.7109 9.24058C38.7109 7.81401 37.55 6.65308 36.1234 6.65308H12.3922Z" fill="black"/>
<path d="M3.82813 23.4468C1.92735 23.4468 0.381256 21.9008 0.381256 20C0.381256 18.0992 1.92735 16.5531 3.82813 16.5531C5.72891 16.5531 7.27501 18.0992 7.27501 20C7.27501 21.9008 5.72891 23.4468 3.82813 23.4468ZM3.82813 17.4125C2.40157 17.4125 1.24063 18.5734 1.24063 20C1.24063 21.4265 2.40157 22.5875 3.82813 22.5875C5.25469 22.5875 6.41563 21.4265 6.41563 20C6.41563 18.5734 5.25469 17.4125 3.82813 17.4125Z" fill="black"/>
<path d="M36.1234 23.4468H12.3922C10.4914 23.4468 8.94531 21.9008 8.94531 20C8.94531 18.0992 10.4914 16.5531 12.3922 16.5531H36.1234C38.0242 16.5531 39.5703 18.0992 39.5703 20C39.5703 21.9008 38.0242 23.4468 36.1234 23.4468ZM12.3922 17.4125C10.9656 17.4125 9.80469 18.5734 9.80469 20C9.80469 21.4265 10.9656 22.5875 12.3922 22.5875H36.1234C37.55 22.5875 38.7109 21.4265 38.7109 20C38.7109 18.5734 37.55 17.4125 36.1234 17.4125H12.3922Z" fill="black"/>
<path d="M3.82813 34.2062C1.92735 34.2062 0.381256 32.6602 0.381256 30.7594C0.381256 28.8586 1.92735 27.3125 3.82813 27.3125C5.72891 27.3125 7.27501 28.8586 7.27501 30.7594C7.27501 32.6602 5.72891 34.2062 3.82813 34.2062ZM3.82813 28.1719C2.40157 28.1719 1.24063 29.3328 1.24063 30.7594C1.24063 32.1859 2.40157 33.3469 3.82813 33.3469C5.25469 33.3469 6.41563 32.1859 6.41563 30.7594C6.41563 29.3328 5.25469 28.1719 3.82813 28.1719Z" fill="black"/>
<path d="M36.1234 34.2062H12.3922C10.4914 34.2062 8.94531 32.6602 8.94531 30.7594C8.94531 28.8586 10.4914 27.3125 12.3922 27.3125H36.1234C38.0242 27.3125 39.5703 28.8586 39.5703 30.7594C39.5703 32.6602 38.0242 34.2062 36.1234 34.2062ZM12.3922 28.1719C10.9656 28.1719 9.80469 29.3328 9.80469 30.7594C9.80469 32.1859 10.9656 33.3469 12.3922 33.3469H36.1234C37.55 33.3469 38.7109 32.1859 38.7109 30.7594C38.7109 29.3328 37.55 28.1719 36.1234 28.1719H12.3922Z" fill="black"/>
</svg>
