<svg width="40" height="40" viewBox="0 0 40 40" fill="none" xmlns="http://www.w3.org/2000/svg">
<path d="M28.5176 20.2695C28.6545 21.8966 30.0205 23.1793 31.6828 23.1793C33.4354 23.1793 34.8621 21.7526 34.8621 20C34.8621 18.2474 33.4354 16.8207 31.6828 16.8207C30.0205 16.8207 28.6545 18.1034 28.5176 19.7305H21.8556C21.8105 19.413 21.6863 19.1223 21.5029 18.8767L30.8911 9.48845C31.1169 9.64086 31.3893 9.73117 31.6828 9.73117C32.4631 9.73117 33.0967 9.09757 33.0967 8.31721C33.0967 7.53686 32.4631 6.90326 31.6828 6.90326C30.9024 6.90326 30.2688 7.53686 30.2688 8.31721C30.2688 8.61073 30.3577 8.88308 30.5115 9.10886L21.1233 18.4971C20.8777 18.3137 20.587 18.1895 20.2695 18.1444V10.8234C21.5325 10.6893 22.5203 9.61687 22.5203 8.31862C22.5203 6.92866 21.39 5.79834 20 5.79834C18.61 5.79834 17.4797 6.92866 17.4797 8.31862C17.4797 9.61687 18.4675 10.6893 19.7305 10.8234V18.1444C19.413 18.1895 19.1223 18.3137 18.8767 18.4971L9.50257 9.12156C9.65921 8.89296 9.74952 8.61637 9.74952 8.31721C9.74952 7.52698 9.10887 6.88491 8.31722 6.88491C7.52557 6.88491 6.88633 7.52698 6.88633 8.31721C6.88633 9.10745 7.52699 9.74951 8.31863 9.74951C8.61638 9.74951 8.89296 9.65779 9.12298 9.50257L18.4986 18.8781C18.3151 19.1237 18.1909 19.4144 18.1458 19.7319H11.2905C11.155 18.2093 9.87652 17.014 8.31722 17.014C6.6676 17.014 5.33126 18.3504 5.33126 20C5.33126 21.6496 6.6676 22.986 8.31722 22.986C9.87511 22.986 11.1536 21.7921 11.2905 20.2681H18.1444C18.1895 20.5856 18.3137 20.8763 18.4971 21.1218L9.63804 29.9824C9.27256 29.6987 8.81535 29.5266 8.31863 29.5266C7.13046 29.5266 6.16383 30.4932 6.16383 31.6814C6.16383 32.8695 7.13046 33.8362 8.31863 33.8362C9.50681 33.8362 10.4734 32.8695 10.4734 31.6814C10.4734 31.1846 10.3027 30.726 10.019 30.3619L18.8796 21.5014C19.1251 21.6849 19.4158 21.8091 19.7333 21.8556V28.7279C18.2206 28.8633 17.0352 30.1333 17.0352 31.6814C17.0352 33.3197 18.3631 34.649 20.0028 34.649C21.6411 34.649 22.9704 33.3211 22.9704 31.6814C22.9704 30.1333 21.7851 28.8633 20.2723 28.7279V21.8556C20.5899 21.8105 20.8805 21.6863 21.1261 21.5028L30.6357 31.0139C30.5115 31.2072 30.4382 31.4358 30.4382 31.6828C30.4382 32.3714 30.997 32.9302 31.6856 32.9302C32.3742 32.9302 32.933 32.3714 32.933 31.6828C32.933 30.9941 32.3742 30.4353 31.6856 30.4353C31.4386 30.4353 31.21 30.5087 31.0167 30.6329L21.5071 21.1218C21.6905 20.8763 21.8147 20.5856 21.8599 20.2681H28.5176V20.2695ZM31.6828 17.3598C33.1391 17.3598 34.323 18.5451 34.323 20C34.323 21.4563 33.1377 22.6402 31.6828 22.6402C30.2265 22.6402 29.0425 21.4549 29.0425 20C29.0425 18.5437 30.2265 17.3598 31.6828 17.3598ZM18.0188 8.31721C18.0188 7.22358 18.9078 6.33457 20.0014 6.33457C21.095 6.33457 21.9841 7.22358 21.9841 8.31721C21.9841 9.41084 21.095 10.2999 20.0014 10.2999C18.9078 10.2999 18.0188 9.41084 18.0188 8.31721ZM8.31863 33.2999C7.42679 33.2999 6.70147 32.5746 6.70147 31.6828C6.70147 30.7909 7.42679 30.0656 8.31863 30.0656C9.21047 30.0656 9.93579 30.7909 9.93579 31.6828C9.93579 32.5746 9.21047 33.2999 8.31863 33.2999Z" fill="#0970CE"/>
<path d="M34.8988 3.0354H28.4668C27.328 3.0354 26.4009 3.96252 26.4009 5.10271V11.5347C26.4009 11.7026 26.4235 11.8635 26.4602 12.0201L26.8355 11.6447C26.8327 11.608 26.8299 11.5728 26.8299 11.5347V5.10271C26.8299 4.201 27.5637 3.4658 28.4668 3.4658H34.8988C35.8005 3.4658 36.5357 4.19959 36.5357 5.10271V11.5347C36.5357 12.4364 35.8019 13.1716 34.8988 13.1716H28.4668C28.4301 13.1716 28.3934 13.1688 28.3567 13.1659L27.9814 13.5413C28.1366 13.5794 28.2989 13.6006 28.4668 13.6006H34.8988C36.0375 13.6006 36.9647 12.6734 36.9647 11.5347V5.10271C36.9647 3.96252 36.0375 3.0354 34.8988 3.0354Z" fill="black"/>
<path d="M34.8988 14.7181H28.4668C27.328 14.7181 26.4009 15.6453 26.4009 16.784V18.9233H26.8313V16.784C26.8313 15.8823 27.5651 15.1471 28.4682 15.1471H34.9002C35.8019 15.1471 36.5371 15.8809 36.5371 16.784V23.216C36.5371 24.1177 35.8033 24.8529 34.9002 24.8529H28.4682C27.5665 24.8529 26.8313 24.1191 26.8313 23.216V21.0767H26.4009V23.216C26.4009 24.3548 27.328 25.2819 28.4668 25.2819H34.8988C36.0375 25.2819 36.9647 24.3548 36.9647 23.216V16.784C36.9647 15.6453 36.0375 14.7181 34.8988 14.7181Z" fill="black"/>
<path d="M34.8988 26.401H28.4668C28.2989 26.401 28.138 26.4236 27.9814 26.4603L28.3567 26.8356C28.3934 26.8328 28.4287 26.83 28.4668 26.83H34.8988C35.8005 26.83 36.5357 27.5638 36.5357 28.4669V34.8988C36.5357 35.8006 35.8019 36.5358 34.8988 36.5358H28.4668C27.5651 36.5358 26.8299 35.802 26.8299 34.8988V28.4669C26.8299 28.4302 26.8327 28.3935 26.8355 28.3582L26.4602 27.9829C26.4221 28.1381 26.4009 28.3004 26.4009 28.4683V34.9003C26.4009 36.0405 27.328 36.9676 28.4668 36.9676H34.8988C36.0375 36.9676 36.9647 36.0405 36.9647 34.9003V28.4683C36.9647 27.3281 36.0375 26.401 34.8988 26.401Z" fill="black"/>
<path d="M23.216 26.401H21.0767V26.8314H23.216C24.1177 26.8314 24.8529 27.5652 24.8529 28.4683V34.9003C24.8529 35.802 24.1191 36.5372 23.216 36.5372H16.784C15.8823 36.5372 15.1471 35.8034 15.1471 34.9003V28.4683C15.1471 27.5666 15.8809 26.8314 16.784 26.8314H18.9233V26.401H16.784C15.6438 26.401 14.7167 27.3281 14.7167 28.4669V34.8988C14.7167 36.039 15.6438 36.9662 16.784 36.9662H23.216C24.3548 36.9662 25.2819 36.039 25.2819 34.8988V28.4669C25.2819 27.3281 24.3562 26.401 23.216 26.401Z" fill="black"/>
<path d="M13.1645 28.3582C13.1673 28.3949 13.1701 28.4302 13.1701 28.4669V34.8988C13.1701 35.8006 12.4363 36.5358 11.5332 36.5358H5.10266C4.20094 36.5358 3.46574 35.802 3.46574 34.8988V28.4669C3.46574 27.5652 4.19953 26.83 5.10266 26.83H11.5346C11.5713 26.83 11.608 26.8328 11.6447 26.8356L12.02 26.4603C11.8634 26.4222 11.7025 26.401 11.5346 26.401H5.10266C3.96246 26.401 3.03535 27.3281 3.03535 28.4669V34.8988C3.03535 36.039 3.96246 36.9662 5.10266 36.9662H11.5346C12.6734 36.9662 13.6005 36.039 13.6005 34.8988V28.4669C13.6005 28.299 13.5779 28.1381 13.5412 27.9815L13.1645 28.3582Z" fill="black"/>
<path d="M13.6005 23.216V21.0767H13.1701V23.216C13.1701 24.1177 12.4363 24.8529 11.5332 24.8529H5.10266C4.20094 24.8529 3.46574 24.1191 3.46574 23.216V16.784C3.46574 15.8823 4.19953 15.1471 5.10266 15.1471H11.5346C12.4363 15.1471 13.1715 15.8809 13.1715 16.784V18.9233H13.6019V16.784C13.6019 15.6453 12.6748 14.7181 11.536 14.7181H5.10266C3.96246 14.7181 3.03535 15.6453 3.03535 16.784V23.216C3.03535 24.3548 3.96246 25.2819 5.10266 25.2819H11.5346C12.6734 25.2819 13.6005 24.3562 13.6005 23.216Z" fill="black"/>
<path d="M24.8529 16.784V18.9233H25.2833V16.784C25.2833 16.6161 25.2607 16.4552 25.224 16.2986L24.8487 16.6739C24.8487 16.712 24.8529 16.7473 24.8529 16.784Z" fill="black"/>
<path d="M21.0767 14.7181V15.1485H23.216C23.2527 15.1485 23.2893 15.1514 23.326 15.1542L23.7014 14.7788C23.5462 14.7407 23.3839 14.7196 23.216 14.7196H21.0767V14.7181Z" fill="black"/>
<path d="M16.7854 24.8529C16.7487 24.8529 16.7121 24.8501 16.6754 24.8473L16.3 25.2227C16.4566 25.2608 16.6175 25.2819 16.7854 25.2819H18.9247V24.8515H16.7854V24.8529Z" fill="black"/>
<path d="M25.2819 21.0767H24.8515V23.2159C24.8515 23.2526 24.8487 23.2893 24.8458 23.3246L25.2212 23.7C25.2593 23.5447 25.2805 23.3825 25.2805 23.2145V21.0767H25.2819Z" fill="black"/>
<path d="M16.6754 15.1542C16.7121 15.1514 16.7473 15.1485 16.7854 15.1485H18.9247V14.7181H16.7854C16.6175 14.7181 16.4566 14.7407 16.3 14.7774L16.6754 15.1542Z" fill="black"/>
<path d="M23.326 24.8473C23.2893 24.8501 23.2541 24.8529 23.216 24.8529H21.0767V25.2833H23.216C23.3839 25.2833 23.5448 25.2608 23.7014 25.2241L23.326 24.8473Z" fill="black"/>
<path d="M14.7181 18.9248H15.1485V16.7855C15.1485 16.7488 15.1513 16.7121 15.1542 16.6754L14.7788 16.3C14.7407 16.4567 14.7195 16.6176 14.7195 16.7855V18.9248H14.7181Z" fill="black"/>
<path d="M15.1485 23.2159V21.0767H14.7181V23.2159C14.7181 23.3839 14.7407 23.5447 14.7774 23.7014L15.1528 23.326C15.1513 23.2893 15.1485 23.2526 15.1485 23.2159Z" fill="black"/>
<path d="M16.7854 13.6006H18.9247V13.1702H16.7854C15.8837 13.1702 15.1485 12.4364 15.1485 11.5333V5.10271C15.1485 4.201 15.8823 3.4658 16.7854 3.4658H23.2174C24.1191 3.4658 24.8543 4.19959 24.8543 5.10271V11.5347C24.8543 12.4364 24.1205 13.1716 23.2174 13.1716H21.0781V13.602H23.2174C24.3562 13.602 25.2833 12.6749 25.2833 11.5361V5.10271C25.2833 3.96252 24.3562 3.0354 23.2174 3.0354H16.7854C15.6452 3.0354 14.7181 3.96252 14.7181 5.10271V11.5347C14.7181 12.6734 15.6452 13.6006 16.7854 13.6006Z" fill="black"/>
<path d="M11.5332 13.6006C11.7011 13.6006 11.862 13.578 12.0186 13.5413L11.6433 13.1659C11.6066 13.1688 11.5713 13.1716 11.5332 13.1716H5.10266C4.20094 13.1716 3.46574 12.4378 3.46574 11.5347V5.10271C3.46574 4.201 4.19953 3.4658 5.10266 3.4658H11.5346C12.4363 3.4658 13.1715 4.19959 13.1715 5.10271V11.5347C13.1715 11.5713 13.1687 11.608 13.1659 11.6433L13.5412 12.0187C13.5793 11.8635 13.6005 11.7012 13.6005 11.5332V5.10271C13.6005 3.96252 12.6734 3.0354 11.5346 3.0354H5.10266C3.96246 3.0354 3.03535 3.96252 3.03535 5.10271V11.5347C3.03535 12.6734 3.96246 13.6006 5.10266 13.6006H11.5332Z" fill="black"/>
</svg>
