<svg width="40" height="40" viewBox="0 0 40 40" fill="none" xmlns="http://www.w3.org/2000/svg">
<path d="M28.325 13.4833L27.9 12.0749C27.3583 10.4749 25.6167 9.61661 24.0167 10.1583C23.1167 10.4666 22.4083 11.1749 22.1 12.0749L21.675 13.4833C21.3167 14.6749 21.2417 15.9249 21.4583 17.1499C21.6583 18.1833 22.3083 19.0666 23.2333 19.5499L22.75 30.2666C22.6833 30.8666 22.8833 31.4583 23.2833 31.9083C24.15 32.8583 25.625 32.9249 26.575 32.0583C26.625 32.0083 26.675 31.9583 26.725 31.9083C27.1167 31.4749 27.3167 30.8916 27.2583 30.3083L26.775 19.5499C27.7 19.0583 28.35 18.1749 28.55 17.1499C28.7583 15.9249 28.6833 14.6666 28.325 13.4833ZM27.2333 16.9166C27.0917 17.6583 26.5583 18.2666 25.85 18.5083C25.5833 18.6083 25.4083 18.8749 25.4167 19.1583L25.925 30.4083C25.95 30.6249 25.875 30.8499 25.725 31.0083C25.325 31.4083 24.675 31.4083 24.275 31.0083C24.1167 30.8333 24.0417 30.5916 24.075 30.3583L24.575 19.1499C24.5917 18.8583 24.4167 18.5999 24.1417 18.4999C23.4333 18.2499 22.9 17.6499 22.7583 16.9083C22.5833 15.8916 22.6417 14.8499 22.9417 13.8666L23.3667 12.4583C23.7 11.5666 24.6917 11.1083 25.5917 11.4333C26.0667 11.6083 26.4417 11.9833 26.6167 12.4583L27.0417 13.8666C27.35 14.8583 27.4083 15.8999 27.2333 16.9166Z" fill="black"/>
<path d="M18 10C17.6333 10 17.3333 10.3 17.3333 10.6667V14.8083L16.1083 16.6167C15.975 16.75 15.9 16.9333 15.9167 17.125V30.375C15.9333 30.625 15.8417 30.875 15.6667 31.0583C15.3 31.425 14.7083 31.4333 14.3417 31.0667C14.3417 31.0667 14.3417 31.0667 14.3333 31.0583C14.1583 30.875 14.0667 30.6333 14.0833 30.375V17.125C14.0917 16.9333 14.025 16.75 13.8917 16.6167L12.6667 14.8083V10.6667C12.6667 10.3 12.3667 10 12 10C11.6333 10 11.3333 10.3 11.3333 10.6667V15.0833C11.3333 15.2583 11.4 15.4333 11.525 15.5583L12.7333 17.35L12.75 30.3083C12.6917 31.55 13.65 32.6083 14.8917 32.6667C16.1333 32.725 17.1917 31.7667 17.25 30.525C17.25 30.45 17.25 30.375 17.25 30.3083L17.2667 17.35L18.475 15.5583C18.6 15.4333 18.6667 15.2667 18.6667 15.0833V10.6667C18.6667 10.3 18.3667 10 18 10Z" fill="black"/>
<path d="M14 10C13.6333 10 13.3333 10.3 13.3333 10.6667V14.4167C13.3333 14.7833 13.6333 15.0833 14 15.0833C14.3667 15.0833 14.6667 14.7833 14.6667 14.4167V10.6667C14.6667 10.3 14.3667 10 14 10Z" fill="black"/>
<path d="M16 10C15.6333 10 15.3333 10.3 15.3333 10.6667V14.4167C15.3333 14.7833 15.6333 15.0833 16 15.0833C16.3667 15.0833 16.6667 14.7833 16.6667 14.4167V10.6667C16.6667 10.3 16.3667 10 16 10Z" fill="black"/>
<path d="M20 0C8.95833 0 0 8.95833 0 20C0 31.0417 8.95833 40 20 40C31.0417 40 40 31.0417 40 20C39.9917 8.95833 31.0417 0.0166667 20 0ZM20 38.6667C9.69167 38.6667 1.33333 30.3083 1.33333 20C1.33333 9.69167 9.69167 1.33333 20 1.33333C30.3083 1.33333 38.6667 9.69167 38.6667 20C38.6583 30.3083 30.3083 38.6583 20 38.6667Z" fill="black"/>
<path d="M22.1667 32.5166C22.1333 32.15 21.8083 31.8833 21.4417 31.9166C21.4333 31.9166 21.425 31.9166 21.4167 31.9166C20.475 32.025 19.5333 32.025 18.5917 31.9166C18.225 31.875 17.8917 32.1333 17.85 32.5C17.8083 32.8666 18.0667 33.2 18.4333 33.2416C19.475 33.3666 20.525 33.3666 21.5667 33.2416C21.9333 33.2083 22.2 32.8833 22.1667 32.5166Z" fill="black"/>
<path d="M30.2 11.4083C29.9667 11.125 29.5417 11.0916 29.2583 11.325C28.975 11.5583 28.9417 11.9833 29.175 12.2666C33.1917 17.0416 32.8833 24.0916 28.4667 28.5C28.2083 28.7583 28.2083 29.1833 28.4667 29.4416C28.725 29.7 29.15 29.7 29.4083 29.4416C34.325 24.55 34.6667 16.7083 30.2 11.4083Z" fill="black"/>
<path d="M23.1417 7.04163C20.5333 6.41663 17.8 6.5833 15.2917 7.52496C14.95 7.6583 14.775 8.04163 14.9 8.38329C15 8.64163 15.25 8.81663 15.525 8.81663C15.6083 8.81663 15.6833 8.79996 15.7583 8.77496C18.0167 7.9333 20.475 7.77496 22.825 8.34163C23.1833 8.42496 23.5417 8.20829 23.6333 7.84996C23.725 7.4833 23.5 7.12496 23.1417 7.04163Z" fill="black"/>
<path d="M11.5 28.4666C9.25 26.225 7.99167 23.175 8 20C7.99167 17.4666 8.8 14.9916 10.2917 12.9416C10.5167 12.65 10.45 12.2333 10.1583 12.0083C9.86667 11.7833 9.45 11.85 9.225 12.1416C9.225 12.15 9.21667 12.15 9.21667 12.1583C5.35833 17.4583 5.93333 24.775 10.5583 29.4166C10.8167 29.675 11.2417 29.675 11.5 29.4166C11.7583 29.15 11.7583 28.725 11.5 28.4666Z" fill="black"/>
</svg>
