<svg width="40" height="40" viewBox="0 0 40 40" fill="none" xmlns="http://www.w3.org/2000/svg">
<path d="M31.7134 5.24074H28.0946V3.62184C28.0946 3.09807 27.5233 2.86001 26.9995 2.86001H24.1902C23.5237 0.955392 21.8571 0.00308302 19.9525 0.00308302C18.0688 -0.0677318 16.3555 1.08727 15.7147 2.86001H12.953C12.4292 2.86001 11.9055 3.09807 11.9055 3.62184V5.24074H8.28661C6.14212 5.26361 4.3877 6.95533 4.2869 9.09755V36.3811C4.2869 38.4762 6.19151 39.9999 8.28661 39.9999H31.7134C33.8085 39.9999 35.7131 38.4762 35.7131 36.3811V9.09764C35.6123 6.95533 33.8579 5.26361 31.7134 5.24074ZM13.81 4.76463H16.4289C16.886 4.70885 17.2532 4.36107 17.3336 3.90756C17.6156 2.67956 18.6929 1.79806 19.9525 1.76489C21.2003 1.80271 22.2615 2.68694 22.5237 3.90756C22.6091 4.37674 23.0005 4.72899 23.476 4.76463H26.1901V8.57387H13.81V4.76463ZM33.8085 36.3812C33.8085 37.4288 32.7609 38.0954 31.7134 38.0954H8.28661C7.23906 38.0954 6.19151 37.4288 6.19151 36.3812V9.09764C6.28867 8.00726 7.19204 7.16541 8.28661 7.14545H11.9054V9.57384C11.9557 10.1074 12.4178 10.5065 12.9529 10.4786H26.9994C27.5444 10.5084 28.021 10.1147 28.0945 9.57384V7.14536H31.7133C32.8078 7.16541 33.7112 8.00717 33.8084 9.09755V36.3812H33.8085Z" fill="black"/>
<path d="M16.3336 21.2871C15.9764 20.9106 15.3835 20.8894 15.0003 21.2396L11.9529 24.1441L10.6673 22.8108C10.3102 22.4343 9.71721 22.4131 9.33406 22.7632C8.96522 23.1496 8.96522 23.7576 9.33406 24.1441L11.2863 26.1439C11.4552 26.3331 11.6993 26.4377 11.9528 26.4296C12.204 26.4261 12.4436 26.3234 12.6194 26.1439L16.3334 22.6204C16.7016 22.2826 16.7262 21.7103 16.3884 21.3422C16.3711 21.3229 16.3528 21.3046 16.3336 21.2871Z" fill="black"/>
<path d="M29.9993 23.3346H19.0477C18.5218 23.3346 18.0954 23.7609 18.0954 24.2869C18.0954 24.8129 18.5218 25.2392 19.0477 25.2392H29.9993C30.5252 25.2392 30.9516 24.8129 30.9516 24.2869C30.9516 23.7609 30.5252 23.3346 29.9993 23.3346Z" fill="black"/>
<path d="M16.3336 13.6687C15.9764 13.2922 15.3835 13.271 15.0003 13.6211L11.9529 16.5256L10.6673 15.1924C10.3102 14.8159 9.71721 14.7946 9.33406 15.1448C8.96522 15.5312 8.96522 16.1392 9.33406 16.5256L11.2863 18.5255C11.4552 18.7147 11.6993 18.8193 11.9528 18.8112C12.204 18.8077 12.4436 18.705 12.6194 18.5255L16.3334 15.002C16.7016 14.6642 16.7262 14.0919 16.3884 13.7238C16.3711 13.7045 16.3528 13.6862 16.3336 13.6687Z" fill="black"/>
<path d="M29.9993 15.7162H19.0477C18.5218 15.7162 18.0954 16.1425 18.0954 16.6685C18.0954 17.1945 18.5218 17.6208 19.0477 17.6208H29.9993C30.5252 17.6208 30.9516 17.1945 30.9516 16.6685C30.9516 16.1425 30.5252 15.7162 29.9993 15.7162Z" fill="black"/>
<path d="M16.3336 28.9056C15.9764 28.5291 15.3835 28.508 15.0003 28.858L11.9529 31.7625L10.6673 30.4293C10.3102 30.0528 9.71721 30.0316 9.33406 30.3817C8.96522 30.7681 8.96522 31.3761 9.33406 31.7625L11.2863 33.7624C11.4552 33.9516 11.6993 34.0562 11.9528 34.0481C12.204 34.0446 12.4436 33.9419 12.6194 33.7624L16.3334 30.2389C16.7016 29.9011 16.7262 29.3288 16.3884 28.9607C16.3711 28.9415 16.3528 28.9232 16.3336 28.9056Z" fill="black"/>
<path d="M29.9993 30.9531H19.0477C18.5218 30.9531 18.0954 31.3795 18.0954 31.9054C18.0954 32.4314 18.5218 32.8577 19.0477 32.8577H29.9993C30.5252 32.8577 30.9516 32.4314 30.9516 31.9054C30.9516 31.3795 30.5252 30.9531 29.9993 30.9531Z" fill="black"/>
</svg>
